<svg width="131" height="175" viewBox="0 0 131 175" fill="none" xmlns="http://www.w3.org/2000/svg">
<mask id="path-1-outside-1_8_29" maskUnits="userSpaceOnUse" x="0" y="120" width="130" height="37" fill="black">
<rect fill="white" y="120" width="130" height="37"/>
<path d="M14.016 134.744C15.4667 134.744 16.608 134.349 17.44 133.56C18.2933 132.771 18.72 131.683 18.72 130.296C18.72 128.333 18.2187 126.733 17.216 125.496C16.2347 124.237 14.7947 123.608 12.896 123.608C11.4453 123.608 10.1227 124.024 8.928 124.856V144.376L13.888 145.752L13.248 147.032H1.92V146.04L4.928 143.672V124.216L1.6 123.128L2.24 121.848H5.952C8.02133 121.848 10.0587 121.784 12.064 121.656C13.5573 121.571 14.656 121.528 15.36 121.528C16.8533 121.528 18.176 121.848 19.328 122.488C20.5013 123.107 21.408 123.971 22.048 125.08C22.688 126.189 23.008 127.416 23.008 128.76C23.008 130.253 22.464 131.661 21.376 132.984C20.288 134.307 18.9013 135.341 17.216 136.088C15.5307 136.835 13.8773 137.165 12.256 137.08L10.752 135.992L11.392 134.712H13.984L14.016 134.744ZM42.0883 147H36.0083V144.216L32.3923 147.064C31.9656 147.235 31.4323 147.32 30.7923 147.32C28.9576 147.32 27.6243 146.861 26.7923 145.944C25.9816 145.027 25.5763 143.928 25.5763 142.648C25.5763 141.88 25.8536 141.123 26.4083 140.376C26.9629 139.629 27.7523 138.925 28.7763 138.264H36.0083V136.216C36.0083 134.829 35.6349 133.848 34.8883 133.272C34.1629 132.696 33.1603 132.408 31.8802 132.408C30.5576 132.408 28.9363 133.208 27.0163 134.808L26.0563 133.592L30.6643 129.944C31.5176 129.773 32.5416 129.688 33.7363 129.688C35.6776 129.688 37.1816 130.168 38.2483 131.128C39.3149 132.067 39.8483 133.443 39.8483 135.256V144.6L42.7283 145.72L42.0883 147ZM31.8163 144.6C33.1176 144.6 34.5149 144.003 36.0083 142.808V139.576H30.3443C30.0669 139.917 29.8643 140.259 29.7363 140.6C29.6296 140.941 29.5763 141.315 29.5763 141.72C29.5763 142.509 29.7789 143.192 30.1843 143.768C30.5896 144.323 31.1336 144.6 31.8163 144.6ZM62.1873 131L54.0913 147L47.4353 155.448L46.2193 154.488C47.4353 153.187 48.3526 152.045 48.9713 151.064C49.6113 150.083 50.0593 149.091 50.3153 148.088C50.5713 147.107 50.6993 145.933 50.6993 144.568L46.6673 134.808L43.6913 133.08V132.088L49.1633 129.4L50.3793 134.232L54.2833 143.768L58.7953 134.392L54.5393 131.288L55.1793 130.008H62.1873V131ZM75.663 145.72L75.023 147H65.295V146.008L68.303 143.64V124.248L64.975 123.128L65.615 121.848H75.343V122.84L72.303 125.208V144.568L75.663 145.72ZM89.839 147H84.047L74.127 134.392L83.951 125.816L80.239 123.128L80.879 121.848H89.487V122.84L77.967 132.888L86.767 143.896L90.479 145.72L89.839 147ZM102.778 129.688C104.186 129.688 105.445 130.061 106.554 130.808C107.685 131.533 108.56 132.525 109.178 133.784C109.818 135.043 110.138 136.429 110.138 137.944C110.138 139.587 109.637 141.133 108.634 142.584C107.632 144.013 106.373 145.165 104.858 146.04C103.365 146.893 101.914 147.32 100.506 147.32C99.0983 147.32 97.8289 146.957 96.6983 146.232C95.5889 145.485 94.7143 144.483 94.0743 143.224C93.4556 141.965 93.1463 140.579 93.1463 139.064C93.1463 137.421 93.6476 135.885 94.6503 134.456C95.6529 133.005 96.9009 131.853 98.3943 131C99.9089 130.125 101.37 129.688 102.778 129.688ZM100.922 132.376C98.5116 132.376 97.3063 134.093 97.3063 137.528C97.3063 139.555 97.7436 141.251 98.6183 142.616C99.4929 143.96 100.741 144.632 102.362 144.632C104.773 144.632 105.978 142.904 105.978 139.448C105.978 137.443 105.541 135.768 104.666 134.424C103.792 133.059 102.544 132.376 100.922 132.376ZM124.439 143.544C124.439 142.947 124.108 142.403 123.447 141.912C122.786 141.4 121.772 140.792 120.407 140.088C119.298 139.512 118.402 139.011 117.719 138.584C117.036 138.157 116.45 137.667 115.959 137.112C115.49 136.536 115.255 135.917 115.255 135.256C115.255 134.488 115.575 133.667 116.215 132.792C116.855 131.917 117.644 131.181 118.583 130.584C119.522 129.987 120.396 129.688 121.207 129.688C122.188 129.688 123.319 129.816 124.599 130.072C125.9 130.307 126.839 130.573 127.415 130.872V135.8H126.199C125.516 134.477 124.727 133.453 123.831 132.728C122.935 131.981 122.018 131.608 121.079 131.608C120.418 131.608 119.884 131.789 119.479 132.152C119.074 132.493 118.871 132.931 118.871 133.464C118.871 134.125 119.212 134.723 119.895 135.256C120.599 135.768 121.655 136.376 123.063 137.08C124.151 137.635 125.026 138.115 125.687 138.52C126.348 138.925 126.903 139.405 127.351 139.96C127.82 140.493 128.055 141.091 128.055 141.752C128.055 142.541 127.714 143.373 127.031 144.248C126.37 145.101 125.548 145.827 124.567 146.424C123.607 147.021 122.722 147.32 121.911 147.32C120.866 147.32 119.618 147.203 118.167 146.968C116.738 146.712 115.714 146.435 115.095 146.136V141.208H116.311C117.058 142.531 117.943 143.565 118.967 144.312C119.991 145.037 121.026 145.4 122.071 145.4C122.775 145.4 123.34 145.219 123.767 144.856C124.215 144.493 124.439 144.056 124.439 143.544Z"/>
</mask>
<path d="M14.016 134.744C15.4667 134.744 16.608 134.349 17.44 133.56C18.2933 132.771 18.72 131.683 18.72 130.296C18.72 128.333 18.2187 126.733 17.216 125.496C16.2347 124.237 14.7947 123.608 12.896 123.608C11.4453 123.608 10.1227 124.024 8.928 124.856V144.376L13.888 145.752L13.248 147.032H1.92V146.04L4.928 143.672V124.216L1.6 123.128L2.24 121.848H5.952C8.02133 121.848 10.0587 121.784 12.064 121.656C13.5573 121.571 14.656 121.528 15.36 121.528C16.8533 121.528 18.176 121.848 19.328 122.488C20.5013 123.107 21.408 123.971 22.048 125.08C22.688 126.189 23.008 127.416 23.008 128.76C23.008 130.253 22.464 131.661 21.376 132.984C20.288 134.307 18.9013 135.341 17.216 136.088C15.5307 136.835 13.8773 137.165 12.256 137.08L10.752 135.992L11.392 134.712H13.984L14.016 134.744ZM42.0883 147H36.0083V144.216L32.3923 147.064C31.9656 147.235 31.4323 147.32 30.7923 147.32C28.9576 147.32 27.6243 146.861 26.7923 145.944C25.9816 145.027 25.5763 143.928 25.5763 142.648C25.5763 141.88 25.8536 141.123 26.4083 140.376C26.9629 139.629 27.7523 138.925 28.7763 138.264H36.0083V136.216C36.0083 134.829 35.6349 133.848 34.8883 133.272C34.1629 132.696 33.1603 132.408 31.8802 132.408C30.5576 132.408 28.9363 133.208 27.0163 134.808L26.0563 133.592L30.6643 129.944C31.5176 129.773 32.5416 129.688 33.7363 129.688C35.6776 129.688 37.1816 130.168 38.2483 131.128C39.3149 132.067 39.8483 133.443 39.8483 135.256V144.6L42.7283 145.72L42.0883 147ZM31.8163 144.6C33.1176 144.6 34.5149 144.003 36.0083 142.808V139.576H30.3443C30.0669 139.917 29.8643 140.259 29.7363 140.6C29.6296 140.941 29.5763 141.315 29.5763 141.72C29.5763 142.509 29.7789 143.192 30.1843 143.768C30.5896 144.323 31.1336 144.6 31.8163 144.6ZM62.1873 131L54.0913 147L47.4353 155.448L46.2193 154.488C47.4353 153.187 48.3526 152.045 48.9713 151.064C49.6113 150.083 50.0593 149.091 50.3153 148.088C50.5713 147.107 50.6993 145.933 50.6993 144.568L46.6673 134.808L43.6913 133.08V132.088L49.1633 129.4L50.3793 134.232L54.2833 143.768L58.7953 134.392L54.5393 131.288L55.1793 130.008H62.1873V131ZM75.663 145.72L75.023 147H65.295V146.008L68.303 143.64V124.248L64.975 123.128L65.615 121.848H75.343V122.84L72.303 125.208V144.568L75.663 145.72ZM89.839 147H84.047L74.127 134.392L83.951 125.816L80.239 123.128L80.879 121.848H89.487V122.84L77.967 132.888L86.767 143.896L90.479 145.72L89.839 147ZM102.778 129.688C104.186 129.688 105.445 130.061 106.554 130.808C107.685 131.533 108.56 132.525 109.178 133.784C109.818 135.043 110.138 136.429 110.138 137.944C110.138 139.587 109.637 141.133 108.634 142.584C107.632 144.013 106.373 145.165 104.858 146.04C103.365 146.893 101.914 147.32 100.506 147.32C99.0983 147.32 97.8289 146.957 96.6983 146.232C95.5889 145.485 94.7143 144.483 94.0743 143.224C93.4556 141.965 93.1463 140.579 93.1463 139.064C93.1463 137.421 93.6476 135.885 94.6503 134.456C95.6529 133.005 96.9009 131.853 98.3943 131C99.9089 130.125 101.37 129.688 102.778 129.688ZM100.922 132.376C98.5116 132.376 97.3063 134.093 97.3063 137.528C97.3063 139.555 97.7436 141.251 98.6183 142.616C99.4929 143.96 100.741 144.632 102.362 144.632C104.773 144.632 105.978 142.904 105.978 139.448C105.978 137.443 105.541 135.768 104.666 134.424C103.792 133.059 102.544 132.376 100.922 132.376ZM124.439 143.544C124.439 142.947 124.108 142.403 123.447 141.912C122.786 141.4 121.772 140.792 120.407 140.088C119.298 139.512 118.402 139.011 117.719 138.584C117.036 138.157 116.45 137.667 115.959 137.112C115.49 136.536 115.255 135.917 115.255 135.256C115.255 134.488 115.575 133.667 116.215 132.792C116.855 131.917 117.644 131.181 118.583 130.584C119.522 129.987 120.396 129.688 121.207 129.688C122.188 129.688 123.319 129.816 124.599 130.072C125.9 130.307 126.839 130.573 127.415 130.872V135.8H126.199C125.516 134.477 124.727 133.453 123.831 132.728C122.935 131.981 122.018 131.608 121.079 131.608C120.418 131.608 119.884 131.789 119.479 132.152C119.074 132.493 118.871 132.931 118.871 133.464C118.871 134.125 119.212 134.723 119.895 135.256C120.599 135.768 121.655 136.376 123.063 137.08C124.151 137.635 125.026 138.115 125.687 138.52C126.348 138.925 126.903 139.405 127.351 139.96C127.82 140.493 128.055 141.091 128.055 141.752C128.055 142.541 127.714 143.373 127.031 144.248C126.37 145.101 125.548 145.827 124.567 146.424C123.607 147.021 122.722 147.32 121.911 147.32C120.866 147.32 119.618 147.203 118.167 146.968C116.738 146.712 115.714 146.435 115.095 146.136V141.208H116.311C117.058 142.531 117.943 143.565 118.967 144.312C119.991 145.037 121.026 145.4 122.071 145.4C122.775 145.4 123.34 145.219 123.767 144.856C124.215 144.493 124.439 144.056 124.439 143.544Z" fill="#494949"/>
<path d="M14.016 134.744L13.3089 135.451L13.6018 135.744H14.016V134.744ZM17.44 133.56L16.7609 132.826L16.7517 132.835L17.44 133.56ZM17.216 125.496L16.4274 126.111L16.4332 126.118L16.4391 126.126L17.216 125.496ZM8.928 124.856L8.35651 124.035L7.928 124.334V124.856H8.928ZM8.928 144.376H7.928V145.136L8.66068 145.34L8.928 144.376ZM13.888 145.752L14.7824 146.199L15.3255 145.113L14.1553 144.788L13.888 145.752ZM13.248 147.032V148.032H13.866L14.1424 147.479L13.248 147.032ZM1.92 147.032H0.92V148.032H1.92V147.032ZM1.92 146.04L1.30144 145.254L0.92 145.555V146.04H1.92ZM4.928 143.672L5.54656 144.458L5.928 144.157V143.672H4.928ZM4.928 124.216H5.928V123.491L5.23874 123.266L4.928 124.216ZM1.6 123.128L0.705573 122.681L0.18691 123.718L1.28926 124.078L1.6 123.128ZM2.24 121.848V120.848H1.62197L1.34557 121.401L2.24 121.848ZM12.064 121.656L12.0069 120.658L12.0003 120.658L12.064 121.656ZM19.328 122.488L18.8424 123.362L18.8519 123.367L18.8616 123.373L19.328 122.488ZM22.048 125.08L21.1818 125.58L21.1818 125.58L22.048 125.08ZM21.376 132.984L20.6037 132.349L20.6037 132.349L21.376 132.984ZM17.216 136.088L17.6211 137.002L17.6211 137.002L17.216 136.088ZM12.256 137.08L11.6699 137.89L11.9089 138.063L12.2034 138.079L12.256 137.08ZM10.752 135.992L9.85757 135.545L9.47775 136.304L10.1659 136.802L10.752 135.992ZM11.392 134.712V133.712H10.774L10.4976 134.265L11.392 134.712ZM13.984 134.712L14.6911 134.005L14.3982 133.712H13.984V134.712ZM14.016 135.744C15.652 135.744 17.0648 135.294 18.1283 134.285L16.7517 132.835C16.1512 133.404 15.2814 133.744 14.016 133.744V135.744ZM18.119 134.294C19.2162 133.279 19.72 131.903 19.72 130.296H17.72C17.72 131.462 17.3704 132.262 16.761 132.826L18.119 134.294ZM19.72 130.296C19.72 128.159 19.171 126.32 17.9929 124.866L16.4391 126.126C17.2663 127.146 17.72 128.508 17.72 130.296H19.72ZM18.0046 124.881C16.7969 123.332 15.0374 122.608 12.896 122.608V124.608C14.5519 124.608 15.6724 125.143 16.4274 126.111L18.0046 124.881ZM12.896 122.608C11.2402 122.608 9.71823 123.087 8.35651 124.035L9.49949 125.677C10.5271 124.961 11.6505 124.608 12.896 124.608V122.608ZM7.928 124.856V144.376H9.928V124.856H7.928ZM8.66068 145.34L13.6207 146.716L14.1553 144.788L9.19532 143.412L8.66068 145.34ZM12.9936 145.305L12.3536 146.585L14.1424 147.479L14.7824 146.199L12.9936 145.305ZM13.248 146.032H1.92V148.032H13.248V146.032ZM2.92 147.032V146.04H0.92V147.032H2.92ZM2.53856 146.826L5.54656 144.458L4.30944 142.886L1.30144 145.254L2.53856 146.826ZM5.928 143.672V124.216H3.928V143.672H5.928ZM5.23874 123.266L1.91074 122.178L1.28926 124.078L4.61726 125.166L5.23874 123.266ZM2.49443 123.575L3.13443 122.295L1.34557 121.401L0.705573 122.681L2.49443 123.575ZM2.24 122.848H5.952V120.848H2.24V122.848ZM5.952 122.848C8.04195 122.848 10.1005 122.783 12.1277 122.654L12.0003 120.658C10.0168 120.785 8.00071 120.848 5.952 120.848V122.848ZM12.1211 122.654C13.6115 122.569 14.6863 122.528 15.36 122.528V120.528C14.6257 120.528 13.5031 120.572 12.007 120.658L12.1211 122.654ZM15.36 122.528C16.7064 122.528 17.8578 122.815 18.8424 123.362L19.8136 121.614C18.4942 120.881 17.0003 120.528 15.36 120.528V122.528ZM18.8616 123.373C19.8743 123.907 20.6396 124.64 21.1818 125.58L22.9142 124.58C22.1764 123.301 21.1284 122.307 19.7944 121.603L18.8616 123.373ZM21.1818 125.58C21.7298 126.529 22.008 127.582 22.008 128.76H24.008C24.008 127.25 23.6463 125.849 22.9142 124.58L21.1818 125.58ZM22.008 128.76C22.008 129.988 21.5673 131.177 20.6037 132.349L22.1483 133.619C23.3607 132.145 24.008 130.519 24.008 128.76H22.008ZM20.6037 132.349C19.6221 133.542 18.3649 134.485 16.8109 135.174L17.6211 137.002C19.4378 136.197 20.9539 135.071 22.1483 133.619L20.6037 132.349ZM16.8109 135.174C15.2498 135.865 13.7527 136.157 12.3086 136.081L12.2034 138.079C14.0019 138.173 15.8116 137.804 17.6211 137.002L16.8109 135.174ZM12.8421 136.27L11.3381 135.182L10.1659 136.802L11.6699 137.89L12.8421 136.27ZM11.6464 136.439L12.2864 135.159L10.4976 134.265L9.85757 135.545L11.6464 136.439ZM11.392 135.712H13.984V133.712H11.392V135.712ZM13.2769 135.419L13.3089 135.451L14.7231 134.037L14.6911 134.005L13.2769 135.419ZM42.0883 147V148H42.7063L42.9827 147.447L42.0883 147ZM36.0083 147H35.0083V148H36.0083V147ZM36.0083 144.216H37.0083V142.155L35.3895 143.43L36.0083 144.216ZM32.3923 147.064L32.7636 147.992L32.8976 147.939L33.011 147.85L32.3923 147.064ZM26.7923 145.944L26.0429 146.606L26.0515 146.616L26.7923 145.944ZM26.4083 140.376L25.6055 139.78L25.6055 139.78L26.4083 140.376ZM28.7763 138.264V137.264H28.4814L28.2337 137.424L28.7763 138.264ZM36.0083 138.264V139.264H37.0083V138.264H36.0083ZM34.8883 133.272L34.2663 134.055L34.2774 134.064L34.8883 133.272ZM27.0163 134.808L26.2314 135.428L26.8676 136.234L27.6564 135.576L27.0163 134.808ZM26.0563 133.592L25.4355 132.808L24.6526 133.428L25.2714 134.212L26.0563 133.592ZM30.6643 129.944L30.4681 128.963L30.2322 129.011L30.0435 129.16L30.6643 129.944ZM38.2483 131.128L37.5792 131.871L37.5876 131.879L38.2483 131.128ZM39.8483 144.6H38.8483V145.284L39.4858 145.532L39.8483 144.6ZM42.7283 145.72L43.6227 146.167L44.1134 145.186L43.0907 144.788L42.7283 145.72ZM36.0083 142.808L36.6329 143.589L37.0083 143.289V142.808H36.0083ZM36.0083 139.576H37.0083V138.576H36.0083V139.576ZM30.3443 139.576V138.576H29.8683L29.5681 138.945L30.3443 139.576ZM29.7363 140.6L28.7999 140.249L28.7901 140.275L28.7818 140.302L29.7363 140.6ZM30.1843 143.768L29.3664 144.343L29.3716 144.351L29.3769 144.358L30.1843 143.768ZM42.0883 146H36.0083V148H42.0883V146ZM37.0083 147V144.216H35.0083V147H37.0083ZM35.3895 143.43L31.7735 146.278L33.011 147.85L36.627 145.002L35.3895 143.43ZM32.0209 146.136C31.7489 146.244 31.3514 146.32 30.7923 146.32V148.32C31.5131 148.32 32.1823 148.225 32.7636 147.992L32.0209 146.136ZM30.7923 146.32C29.1027 146.32 28.0996 145.897 27.533 145.272L26.0515 146.616C27.1489 147.826 28.8124 148.32 30.7923 148.32V146.32ZM27.5416 145.282C26.9003 144.556 26.5763 143.696 26.5763 142.648H24.5763C24.5763 144.16 25.0629 145.497 26.0429 146.606L27.5416 145.282ZM26.5763 142.648C26.5763 142.137 26.7567 141.584 27.211 140.972L25.6055 139.78C24.9504 140.661 24.5763 141.623 24.5763 142.648H26.5763ZM27.211 140.972C27.6759 140.347 28.3658 139.719 29.3188 139.104L28.2337 137.424C27.1387 138.131 26.25 138.912 25.6055 139.78L27.211 140.972ZM28.7763 139.264H36.0083V137.264H28.7763V139.264ZM37.0083 138.264V136.216H35.0083V138.264H37.0083ZM37.0083 136.216C37.0083 134.671 36.5904 133.322 35.4991 132.48L34.2774 134.064C34.6795 134.374 35.0083 134.988 35.0083 136.216H37.0083ZM35.5101 132.489C34.5511 131.727 33.3009 131.408 31.8802 131.408V133.408C33.0196 133.408 33.7747 133.665 34.2664 134.055L35.5101 132.489ZM31.8802 131.408C30.1907 131.408 28.3366 132.406 26.3761 134.04L27.6564 135.576C29.5359 134.01 30.9245 133.408 31.8802 133.408V131.408ZM27.8011 134.188L26.8411 132.972L25.2714 134.212L26.2314 135.428L27.8011 134.188ZM26.677 134.376L31.285 130.728L30.0435 129.16L25.4355 132.808L26.677 134.376ZM30.8604 130.925C31.6303 130.771 32.585 130.688 33.7363 130.688V128.688C32.4982 128.688 31.4049 128.776 30.4681 128.963L30.8604 130.925ZM33.7363 130.688C35.5187 130.688 36.7527 131.127 37.5793 131.871L38.9172 130.385C37.6105 129.209 35.8364 128.688 33.7363 128.688V130.688ZM37.5876 131.879C38.382 132.578 38.8483 133.645 38.8483 135.256H40.8483C40.8483 133.24 40.2478 131.556 38.9089 130.377L37.5876 131.879ZM38.8483 135.256V144.6H40.8483V135.256H38.8483ZM39.4858 145.532L42.3658 146.652L43.0907 144.788L40.2107 143.668L39.4858 145.532ZM41.8338 145.273L41.1938 146.553L42.9827 147.447L43.6227 146.167L41.8338 145.273ZM31.8163 145.6C33.4298 145.6 35.0427 144.861 36.6329 143.589L35.3836 142.027C33.9871 143.144 32.8054 143.6 31.8163 143.6V145.6ZM37.0083 142.808V139.576H35.0083V142.808H37.0083ZM36.0083 138.576H30.3443V140.576H36.0083V138.576ZM29.5681 138.945C29.2363 139.354 28.9728 139.788 28.7999 140.249L30.6726 140.951C30.7557 140.729 30.8976 140.481 31.1204 140.207L29.5681 138.945ZM28.7818 140.302C28.6412 140.752 28.5763 141.227 28.5763 141.72H30.5763C30.5763 141.403 30.618 141.131 30.6907 140.898L28.7818 140.302ZM28.5763 141.72C28.5763 142.689 28.8285 143.579 29.3664 144.343L31.0021 143.193C30.7294 142.805 30.5763 142.329 30.5763 141.72H28.5763ZM29.3769 144.358C29.9691 145.168 30.8121 145.6 31.8163 145.6V143.6C31.4551 143.6 31.2101 143.477 30.9916 143.178L29.3769 144.358ZM62.1873 131L63.0795 131.451L63.1873 131.239V131H62.1873ZM54.0913 147L54.8767 147.619L54.9385 147.541L54.9835 147.451L54.0913 147ZM47.4353 155.448L46.8156 156.233L47.6013 156.853L48.2207 156.067L47.4353 155.448ZM46.2193 154.488L45.4886 153.805L44.7465 154.599L45.5996 155.273L46.2193 154.488ZM48.9713 151.064L48.1336 150.518L48.1294 150.524L48.1253 150.531L48.9713 151.064ZM50.3153 148.088L49.3476 147.836L49.3463 147.841L50.3153 148.088ZM50.6993 144.568H51.6993V144.37L51.6235 144.186L50.6993 144.568ZM46.6673 134.808L47.5915 134.426L47.4622 134.113L47.1694 133.943L46.6673 134.808ZM43.6913 133.08H42.6913V133.656L43.1891 133.945L43.6913 133.08ZM43.6913 132.088L43.2503 131.19L42.6913 131.465V132.088H43.6913ZM49.1633 129.4L50.133 129.156L49.8314 127.958L48.7223 128.502L49.1633 129.4ZM50.3793 134.232L49.4095 134.476L49.4268 134.545L49.4538 134.611L50.3793 134.232ZM54.2833 143.768L53.3578 144.147L54.2095 146.227L55.1843 144.202L54.2833 143.768ZM58.7953 134.392L59.6963 134.826L60.0576 134.075L59.3845 133.584L58.7953 134.392ZM54.5393 131.288L53.6448 130.841L53.2665 131.597L53.95 132.096L54.5393 131.288ZM55.1793 130.008V129.008H54.5612L54.2848 129.561L55.1793 130.008ZM62.1873 130.008H63.1873V129.008H62.1873V130.008ZM61.295 130.549L53.199 146.549L54.9835 147.451L63.0795 131.451L61.295 130.549ZM53.3058 146.381L46.6498 154.829L48.2207 156.067L54.8767 147.619L53.3058 146.381ZM48.0549 154.663L46.8389 153.703L45.5996 155.273L46.8156 156.233L48.0549 154.663ZM46.9499 155.171C48.1887 153.845 49.1521 152.652 49.8172 151.597L48.1253 150.531C47.5531 151.438 46.6818 152.528 45.4886 153.805L46.9499 155.171ZM49.8089 151.61C50.5009 150.549 50.9977 149.457 51.2842 148.335L49.3463 147.841C49.1208 148.724 48.7216 149.616 48.1336 150.518L49.8089 151.61ZM51.2829 148.34C51.5663 147.254 51.6993 145.991 51.6993 144.568H49.6993C49.6993 145.875 49.5762 146.959 49.3476 147.836L51.2829 148.34ZM51.6235 144.186L47.5915 134.426L45.743 135.19L49.775 144.95L51.6235 144.186ZM47.1694 133.943L44.1934 132.215L43.1891 133.945L46.1651 135.673L47.1694 133.943ZM44.6913 133.08V132.088H42.6913V133.08H44.6913ZM44.1322 132.986L49.6042 130.298L48.7223 128.502L43.2503 131.19L44.1322 132.986ZM48.1935 129.644L49.4095 134.476L51.349 133.988L50.133 129.156L48.1935 129.644ZM49.4538 134.611L53.3578 144.147L55.2087 143.389L51.3047 133.853L49.4538 134.611ZM55.1843 144.202L59.6963 134.826L57.8942 133.958L53.3822 143.334L55.1843 144.202ZM59.3845 133.584L55.1285 130.48L53.95 132.096L58.206 135.2L59.3845 133.584ZM55.4337 131.735L56.0737 130.455L54.2848 129.561L53.6448 130.841L55.4337 131.735ZM55.1793 131.008H62.1873V129.008H55.1793V131.008ZM61.1873 130.008V131H63.1873V130.008H61.1873ZM75.663 145.72L76.5574 146.167L77.0686 145.145L75.9873 144.774L75.663 145.72ZM75.023 147V148H75.641L75.9174 147.447L75.023 147ZM65.295 147H64.295V148H65.295V147ZM65.295 146.008L64.6764 145.222L64.295 145.523V146.008H65.295ZM68.303 143.64L68.9216 144.426L69.303 144.125V143.64H68.303ZM68.303 124.248H69.303V123.529L68.622 123.3L68.303 124.248ZM64.975 123.128L64.0806 122.681L63.5664 123.709L64.656 124.076L64.975 123.128ZM65.615 121.848V120.848H64.997L64.7206 121.401L65.615 121.848ZM75.343 121.848H76.343V120.848H75.343V121.848ZM75.343 122.84L75.9575 123.629L76.343 123.329V122.84H75.343ZM72.303 125.208L71.6885 124.419L71.303 124.719V125.208H72.303ZM72.303 144.568H71.303V145.282L71.9787 145.514L72.303 144.568ZM89.839 147V148H90.457L90.7334 147.447L89.839 147ZM84.047 147L83.2611 147.618L83.5614 148H84.047V147ZM74.127 134.392L73.4694 133.639L72.7535 134.264L73.3411 135.01L74.127 134.392ZM83.951 125.816L84.6086 126.569L85.5552 125.743L84.5375 125.006L83.951 125.816ZM80.239 123.128L79.3446 122.681L78.9649 123.44L79.6525 123.938L80.239 123.128ZM80.879 121.848V120.848H80.261L79.9846 121.401L80.879 121.848ZM89.487 121.848H90.487V120.848H89.487V121.848ZM89.487 122.84L90.1443 123.594L90.487 123.295V122.84H89.487ZM77.967 132.888L77.3097 132.134L76.5877 132.764L77.1859 133.512L77.967 132.888ZM86.767 143.896L85.9859 144.52L86.1254 144.695L86.326 144.794L86.767 143.896ZM90.479 145.72L91.3734 146.167L91.8237 145.267L90.92 144.822L90.479 145.72ZM74.7686 145.273L74.1286 146.553L75.9174 147.447L76.5574 146.167L74.7686 145.273ZM75.023 146H65.295V148H75.023V146ZM66.295 147V146.008H64.295V147H66.295ZM65.9136 146.794L68.9216 144.426L67.6844 142.854L64.6764 145.222L65.9136 146.794ZM69.303 143.64V124.248H67.303V143.64H69.303ZM68.622 123.3L65.294 122.18L64.656 124.076L67.984 125.196L68.622 123.3ZM65.8694 123.575L66.5094 122.295L64.7206 121.401L64.0806 122.681L65.8694 123.575ZM65.615 122.848H75.343V120.848H65.615V122.848ZM74.343 121.848V122.84H76.343V121.848H74.343ZM74.7285 122.051L71.6885 124.419L72.9175 125.997L75.9575 123.629L74.7285 122.051ZM71.303 125.208V144.568H73.303V125.208H71.303ZM71.9787 145.514L75.3387 146.666L75.9873 144.774L72.6273 143.622L71.9787 145.514ZM89.839 146H84.047V148H89.839V146ZM84.8329 146.382L74.9129 133.774L73.3411 135.01L83.2611 147.618L84.8329 146.382ZM74.7846 135.145L84.6086 126.569L83.2934 125.063L73.4694 133.639L74.7846 135.145ZM84.5375 125.006L80.8255 122.318L79.6525 123.938L83.3645 126.626L84.5375 125.006ZM81.1334 123.575L81.7734 122.295L79.9846 121.401L79.3446 122.681L81.1334 123.575ZM80.879 122.848H89.487V120.848H80.879V122.848ZM88.487 121.848V122.84H90.487V121.848H88.487ZM88.8297 122.086L77.3097 132.134L78.6243 133.642L90.1443 123.594L88.8297 122.086ZM77.1859 133.512L85.9859 144.52L87.5481 143.272L78.7481 132.264L77.1859 133.512ZM86.326 144.794L90.038 146.618L90.92 144.822L87.208 142.998L86.326 144.794ZM89.5846 145.273L88.9446 146.553L90.7334 147.447L91.3734 146.167L89.5846 145.273ZM106.554 130.808L105.996 131.638L106.005 131.644L106.014 131.65L106.554 130.808ZM109.178 133.784L108.281 134.225L108.287 134.237L109.178 133.784ZM108.634 142.584L109.453 143.158L109.457 143.153L108.634 142.584ZM104.858 146.04L105.354 146.908L105.358 146.906L104.858 146.04ZM96.6983 146.232L96.1399 147.062L96.149 147.068L96.1583 147.074L96.6983 146.232ZM94.0743 143.224L93.1767 143.665L93.1829 143.677L94.0743 143.224ZM94.6503 134.456L95.4689 135.03L95.4729 135.025L94.6503 134.456ZM98.3943 131L98.8904 131.868L98.8943 131.866L98.3943 131ZM98.6183 142.616L97.7762 143.155L97.7801 143.161L98.6183 142.616ZM104.666 134.424L103.824 134.963L103.828 134.969L104.666 134.424ZM102.778 130.688C103.998 130.688 105.061 131.008 105.996 131.638L107.113 129.978C105.829 129.115 104.374 128.688 102.778 128.688V130.688ZM106.014 131.65C106.985 132.272 107.739 133.123 108.281 134.225L110.076 133.343C109.38 131.928 108.385 130.795 107.094 129.966L106.014 131.65ZM108.287 134.237C108.85 135.345 109.138 136.575 109.138 137.944H111.138C111.138 136.284 110.786 134.74 110.07 133.331L108.287 134.237ZM109.138 137.944C109.138 139.368 108.708 140.719 107.812 142.015L109.457 143.153C110.566 141.548 111.138 139.805 111.138 137.944H109.138ZM107.816 142.01C106.897 143.32 105.747 144.372 104.358 145.174L105.358 146.906C106.999 145.959 108.366 144.707 109.453 143.158L107.816 142.01ZM104.362 145.172C102.987 145.958 101.706 146.32 100.506 146.32V148.32C102.123 148.32 103.743 147.829 105.354 146.908L104.362 145.172ZM100.506 146.32C99.28 146.32 98.1998 146.007 97.2382 145.39L96.1583 147.074C97.4581 147.907 98.9165 148.32 100.506 148.32V146.32ZM97.2566 145.402C96.2965 144.756 95.5329 143.886 94.9656 142.771L93.1829 143.677C93.8956 145.079 94.8813 146.215 96.1399 147.062L97.2566 145.402ZM94.9717 142.783C94.4258 141.672 94.1463 140.438 94.1463 139.064H92.1463C92.1463 140.719 92.4854 142.258 93.1768 143.665L94.9717 142.783ZM94.1463 139.064C94.1463 137.64 94.5764 136.303 95.4689 135.03L93.8316 133.882C92.7187 135.468 92.1463 137.203 92.1463 139.064H94.1463ZM95.4729 135.025C96.3927 133.694 97.5303 132.645 98.8904 131.868L97.8981 130.132C96.2716 131.061 94.9131 132.317 93.8276 133.887L95.4729 135.025ZM98.8943 131.866C100.293 131.058 101.584 130.688 102.778 130.688V128.688C101.157 128.688 99.5244 129.193 97.8942 130.134L98.8943 131.866ZM100.922 131.376C99.447 131.376 98.2116 131.921 97.3917 133.09C96.6172 134.193 96.3063 135.724 96.3063 137.528H98.3063C98.3063 135.897 98.598 134.852 99.0288 134.238C99.4142 133.689 99.9868 133.376 100.922 133.376V131.376ZM96.3063 137.528C96.3063 139.698 96.7754 141.593 97.7762 143.155L99.4603 142.077C98.7118 140.908 98.3063 139.411 98.3063 137.528H96.3063ZM97.7801 143.161C98.8418 144.793 100.407 145.632 102.362 145.632V143.632C101.075 143.632 100.144 143.127 99.4564 142.071L97.7801 143.161ZM102.362 145.632C103.84 145.632 105.076 145.082 105.894 143.908C106.668 142.8 106.978 141.262 106.978 139.448H104.978C104.978 141.09 104.686 142.144 104.254 142.764C103.868 143.318 103.295 143.632 102.362 143.632V145.632ZM106.978 139.448C106.978 137.297 106.508 135.421 105.504 133.879L103.828 134.969C104.573 136.115 104.978 137.588 104.978 139.448H106.978ZM105.508 133.885C104.45 132.232 102.884 131.376 100.922 131.376V133.376C102.203 133.376 103.133 133.885 103.824 134.963L105.508 133.885ZM123.447 141.912L122.835 142.703L122.843 142.709L122.851 142.715L123.447 141.912ZM120.407 140.088L119.946 140.975L119.949 140.977L120.407 140.088ZM117.719 138.584L117.189 139.432L117.189 139.432L117.719 138.584ZM115.959 137.112L115.184 137.744L115.197 137.759L115.21 137.775L115.959 137.112ZM116.215 132.792L115.408 132.201L115.408 132.201L116.215 132.792ZM118.583 130.584L118.046 129.74L118.583 130.584ZM124.599 130.072L124.403 131.053L124.412 131.054L124.422 131.056L124.599 130.072ZM127.415 130.872H128.415V130.264L127.875 129.984L127.415 130.872ZM127.415 135.8V136.8H128.415V135.8H127.415ZM126.199 135.8L125.31 136.259L125.59 136.8H126.199V135.8ZM123.831 132.728L123.191 133.496L123.196 133.501L123.202 133.505L123.831 132.728ZM119.479 132.152L120.123 132.917L120.135 132.907L120.146 132.897L119.479 132.152ZM119.895 135.256L119.279 136.044L119.293 136.055L119.307 136.065L119.895 135.256ZM123.063 137.08L123.517 136.189L123.51 136.186L123.063 137.08ZM125.687 138.52L125.164 139.373L125.164 139.373L125.687 138.52ZM127.351 139.96L126.573 140.588L126.586 140.605L126.6 140.621L127.351 139.96ZM127.031 144.248L126.243 143.633L126.241 143.635L127.031 144.248ZM124.567 146.424L124.047 145.57L124.039 145.575L124.567 146.424ZM118.167 146.968L117.991 147.952L117.999 147.954L118.007 147.955L118.167 146.968ZM115.095 146.136H114.095V146.764L114.66 147.037L115.095 146.136ZM115.095 141.208V140.208H114.095V141.208H115.095ZM116.311 141.208L117.182 140.716L116.895 140.208H116.311V141.208ZM118.967 144.312L118.378 145.12L118.389 145.128L118.967 144.312ZM123.767 144.856L123.138 144.079L123.128 144.086L123.119 144.094L123.767 144.856ZM125.439 143.544C125.439 142.52 124.855 141.712 124.043 141.109L122.851 142.715C123.362 143.094 123.439 143.373 123.439 143.544H125.439ZM124.059 141.121C123.325 140.553 122.248 139.912 120.865 139.199L119.949 140.977C121.297 141.672 122.246 142.247 122.835 142.703L124.059 141.121ZM120.868 139.201C119.771 138.631 118.9 138.143 118.249 137.736L117.189 139.432C117.903 139.878 118.825 140.393 119.946 140.975L120.868 139.201ZM118.249 137.736C117.641 137.356 117.13 136.926 116.708 136.449L115.21 137.775C115.77 138.407 116.432 138.959 117.189 139.432L118.249 137.736ZM116.734 136.48C116.391 136.059 116.255 135.659 116.255 135.256H114.255C114.255 136.176 114.588 137.013 115.184 137.744L116.734 136.48ZM116.255 135.256C116.255 134.772 116.457 134.154 117.022 133.383L115.408 132.201C114.693 133.179 114.255 134.204 114.255 135.256H116.255ZM117.022 133.383C117.587 132.611 118.283 131.96 119.12 131.428L118.046 129.74C117.005 130.403 116.123 131.224 115.408 132.201L117.022 133.383ZM119.12 131.428C119.956 130.896 120.645 130.688 121.207 130.688V128.688C120.148 128.688 119.088 129.078 118.046 129.74L119.12 131.428ZM121.207 130.688C122.105 130.688 123.168 130.806 124.403 131.053L124.795 129.091C123.47 128.826 122.272 128.688 121.207 128.688V130.688ZM124.422 131.056C125.704 131.287 126.519 131.534 126.955 131.76L127.875 129.984C127.159 129.613 126.096 129.326 124.776 129.088L124.422 131.056ZM126.415 130.872V135.8H128.415V130.872H126.415ZM127.415 134.8H126.199V136.8H127.415V134.8ZM127.088 135.341C126.359 133.93 125.49 132.785 124.46 131.951L123.202 133.505C123.964 134.122 124.673 135.025 125.31 136.259L127.088 135.341ZM124.471 131.96C123.44 131.101 122.304 130.608 121.079 130.608V132.608C121.731 132.608 122.43 132.862 123.191 133.496L124.471 131.96ZM121.079 130.608C120.227 130.608 119.439 130.846 118.812 131.407L120.146 132.897C120.33 132.732 120.608 132.608 121.079 132.608V130.608ZM118.835 131.387C118.202 131.92 117.871 132.638 117.871 133.464H119.871C119.871 133.223 119.945 133.067 120.123 132.917L118.835 131.387ZM117.871 133.464C117.871 134.524 118.436 135.385 119.279 136.044L120.511 134.468C119.989 134.061 119.871 133.727 119.871 133.464H117.871ZM119.307 136.065C120.077 136.625 121.191 137.262 122.616 137.974L123.51 136.186C122.119 135.49 121.121 134.911 120.483 134.447L119.307 136.065ZM122.609 137.971C123.685 138.52 124.534 138.986 125.164 139.373L126.21 137.667C125.517 137.243 124.617 136.75 123.517 136.189L122.609 137.971ZM125.164 139.373C125.737 139.724 126.203 140.13 126.573 140.588L128.129 139.332C127.603 138.681 126.96 138.127 126.21 137.667L125.164 139.373ZM126.6 140.621C126.922 140.986 127.055 141.353 127.055 141.752H129.055C129.055 140.829 128.719 140.001 128.102 139.299L126.6 140.621ZM127.055 141.752C127.055 142.244 126.843 142.864 126.243 143.633L127.819 144.863C128.585 143.883 129.055 142.839 129.055 141.752H127.055ZM126.241 143.635C125.659 144.386 124.931 145.032 124.047 145.57L125.087 147.278C126.166 146.622 127.081 145.816 127.821 144.861L126.241 143.635ZM124.039 145.575C123.177 146.111 122.475 146.32 121.911 146.32V148.32C122.968 148.32 124.037 147.932 125.095 147.273L124.039 145.575ZM121.911 146.32C120.936 146.32 119.744 146.21 118.327 145.981L118.007 147.955C119.491 148.195 120.796 148.32 121.911 148.32V146.32ZM118.343 145.984C116.927 145.73 116.018 145.471 115.53 145.235L114.66 147.037C115.41 147.398 116.548 147.694 117.991 147.952L118.343 145.984ZM116.095 146.136V141.208H114.095V146.136H116.095ZM115.095 142.208H116.311V140.208H115.095V142.208ZM115.44 141.7C116.243 143.122 117.218 144.274 118.378 145.12L119.556 143.504C118.668 142.856 117.872 141.939 117.182 140.716L115.44 141.7ZM118.389 145.128C119.547 145.949 120.78 146.4 122.071 146.4V144.4C121.271 144.4 120.435 144.126 119.545 143.496L118.389 145.128ZM122.071 146.4C122.949 146.4 123.764 146.171 124.415 145.618L123.119 144.094C122.916 144.267 122.601 144.4 122.071 144.4V146.4ZM124.396 145.633C125.045 145.108 125.439 144.398 125.439 143.544H123.439C123.439 143.714 123.385 143.879 123.138 144.079L124.396 145.633Z" fill="white" mask="url(#path-1-outside-1_8_29)"/>
<path d="M19.25 106.5L24.5 99.9998H19.25H15L19.25 106.5Z" fill="#6A5555"/>
<path d="M24.5 99.9998L26.5 13.4998H20.5L19.25 99.9998H24.5Z" fill="#B1B392"/>
<path d="M15 13.4998V99.9998H19.25L20.5 13.4998H15Z" fill="#A29565"/>
<path d="M33 1V114H114.5V20H100.5V1H33Z" fill="#BAB7B7"/>
<path d="M26.5 13.4998C26.5 1.99982 15 2.49965 15 13.4998H20.5H26.5Z" fill="black"/>
<path d="M114.5 20V114H33V1H100.5M114.5 20L100.5 1M114.5 20H100.5V1M15 13.4998C15 2.49965 26.5 1.99982 26.5 13.4998M15 13.4998C15 24.5 15 99.9998 15 99.9998M15 13.4998H20.5M15 13.4998V99.9998M26.5 13.4998C26.5 24.9998 24.5 99.9998 24.5 99.9998M26.5 13.4998H20.5M26.5 13.4998L24.5 99.9998M24.5 99.9998L19.25 106.5L15 99.9998M24.5 99.9998H19.25M15 99.9998H19.25M20.5 13.4998L19.25 99.9998M44.5 15.4998H84.5M44.5 27.9998H100.5M44.5 40.9998H100.5M44.5 84.9998H100.5M44.5 95.4998H100.5" stroke="#7C796A"/>
<path d="M88.5 64.4998C88.5 73.6125 81.1127 80.9998 72 80.9998C62.8873 80.9998 55.5 73.6125 55.5 64.4998C55.5 55.3871 62.8873 47.9998 72 47.9998C81.1127 47.9998 88.5 55.3871 88.5 64.4998Z" fill="#D9D9D9"/>
<path d="M77.414 62.4138C78 61.8278 78 60.8858 78 58.9998C78 57.1138 78 56.1718 77.414 55.5858M77.414 62.4138C76.828 62.9998 75.886 62.9998 74 62.9998H70C68.114 62.9998 67.172 62.9998 66.586 62.4138M77.414 55.5858C76.828 54.9998 75.886 54.9998 74 54.9998H70C68.114 54.9998 67.172 54.9998 66.586 55.5858M66.586 55.5858C66 56.1718 66 57.1138 66 58.9998C66 60.8858 66 61.8278 66.586 62.4138M73 58.9998C73 59.265 72.8946 59.5194 72.7071 59.7069C72.5196 59.8945 72.2652 59.9998 72 59.9998C71.7348 59.9998 71.4804 59.8945 71.2929 59.7069C71.1054 59.5194 71 59.265 71 58.9998C71 58.7346 71.1054 58.4802 71.2929 58.2927C71.4804 58.1052 71.7348 57.9998 72 57.9998C72.2652 57.9998 72.5196 58.1052 72.7071 58.2927C72.8946 58.4802 73 58.7346 73 58.9998Z" stroke="black" stroke-width="1.5"/>
<path d="M78 57.9998C77.2044 57.9998 76.4413 57.6837 75.8787 57.1211C75.3161 56.5585 75 55.7955 75 54.9998M78 59.9998C77.2044 59.9998 76.4413 60.3159 75.8787 60.8785C75.3161 61.4411 75 62.2042 75 62.9998M66 57.9998C66.7956 57.9998 67.5587 57.6837 68.1213 57.1211C68.6839 56.5585 69 55.7955 69 54.9998M66 59.9998C66.7956 59.9998 67.5587 60.3159 68.1213 60.8785C68.6839 61.4411 69 62.2042 69 62.9998M65 72.3878H67.26C68.27 72.3878 69.293 72.4938 70.276 72.6958C72.0311 73.0553 73.8367 73.0952 75.606 72.8138C76.474 72.6738 77.326 72.4588 78.098 72.0868C78.794 71.7498 79.647 71.2768 80.22 70.7458C80.792 70.2158 81.388 69.3488 81.81 68.6708C82.174 68.0888 81.998 67.3758 81.424 66.9428C81.1013 66.7086 80.7127 66.5825 80.314 66.5825C79.9153 66.5825 79.5267 66.7086 79.204 66.9428L77.397 68.3078C76.697 68.8378 75.932 69.3248 75.021 69.4698C74.911 69.4871 74.796 69.5028 74.676 69.5168M74.676 69.5168L74.566 69.5288M74.676 69.5168C74.836 69.4735 74.9828 69.391 75.103 69.2768C75.2539 69.1466 75.3772 68.9874 75.4655 68.8087C75.5538 68.63 75.6054 68.4354 75.6171 68.2365C75.6289 68.0375 75.6006 67.8381 75.5339 67.6503C75.4672 67.4624 75.3636 67.2899 75.229 67.1428C75.0987 66.9981 74.9469 66.8744 74.779 66.7758C71.982 65.1068 67.629 66.3778 65 68.2428M74.676 69.5168C74.6399 69.5249 74.603 69.5289 74.566 69.5288M74.566 69.5288C73.9629 69.5893 73.3554 69.5906 72.752 69.5328" stroke="black" stroke-width="1.5" stroke-linecap="round"/>
<path d="M65 67.4998C65 66.6714 64.3284 65.9998 63.5 65.9998C62.6716 65.9998 62 66.6714 62 67.4998V72.4998C62 73.3282 62.6716 73.9998 63.5 73.9998C64.3284 73.9998 65 73.3282 65 72.4998V67.4998Z" stroke="black" stroke-width="1.5"/>
</svg>
