<?xml version="1.0" ?><!DOCTYPE svg  PUBLIC '-//W3C//DTD SVG 1.1//EN'  'http://www.w3.org/Graphics/SVG/1.1/DTD/svg11.dtd'><svg xmlns="http://www.w3.org/2000/svg" xmlns:xlink="http://www.w3.org/1999/xlink" version="1.1" id="Layer_1" width="512px" height="512px" viewBox="0 0 512 512" enable-background="new 0 0 512 512" xml:space="preserve"><path d="M256.004,498.5c-43.512,0-86.001-11.589-123.213-33.564L44.283,482.4c-4.087,0.806-8.312-0.477-11.259-3.425  c-2.947-2.947-4.231-7.169-3.425-11.259l17.465-88.509C20.628,334.402,9.239,281.393,14.96,229.354  c5.993-54.527,30.696-105.959,69.56-144.821C130.325,38.727,191.224,13.5,255.998,13.5c64.775,0,125.671,25.227,171.471,71.033  c45.805,45.798,71.031,106.694,71.031,171.469c0,64.774-25.227,125.673-71.032,171.479C381.671,473.278,320.777,498.5,256.004,498.5  z M135.116,439.236c2.308,0,4.587,0.639,6.576,1.87c34.256,21.192,73.784,32.394,114.312,32.394  c58.096,0,112.711-22.621,153.786-63.697c41.084-41.084,63.71-95.705,63.71-153.801c0-58.096-22.626-112.714-63.709-153.792  C368.712,61.125,314.095,38.5,255.998,38.5s-112.717,22.626-153.801,63.71c-71.718,71.717-84.591,181.963-31.304,268.098  c1.661,2.685,2.245,5.898,1.634,8.996l-14.791,74.959l74.96-14.791C133.499,439.314,134.31,439.236,135.116,439.236z   M312.275,427.097c-0.008,0-0.014,0-0.021,0H212.89c-4.577,0-8.788-2.501-10.978-6.521c-2.189-4.02-2.006-8.915,0.477-12.76  l20.505-31.751V275.127h-23.154c-4.051,0-7.851-1.963-10.194-5.267c-2.345-3.304-2.942-7.539-1.604-11.362l20.457-58.45  c1.754-5.014,6.486-8.371,11.798-8.371h69.556c6.903,0,12.5,5.597,12.5,12.5v171.887l20.149,31.202  c1.493,2.06,2.374,4.592,2.374,7.331C324.775,421.501,319.179,427.097,312.275,427.097z M235.842,402.097h53.462l-10.053-15.567  c-1.305-2.021-1.999-4.375-1.999-6.781V216.678h-48.188l-11.707,33.45h18.036c6.903,0,12.5,5.596,12.5,12.5V379.75  c0,2.406-0.694,4.76-1.999,6.781L235.842,402.097z M260.965,168.164h-9.937c-21.073,0-38.218-17.145-38.218-38.218v-6.819  c0-21.073,17.145-38.218,38.218-38.218h9.937c21.073,0,38.218,17.145,38.218,38.218v6.819  C299.183,151.02,282.038,168.164,260.965,168.164z M251.028,109.909c-7.288,0-13.218,5.93-13.218,13.218v6.819  c0,7.288,5.93,13.218,13.218,13.218h9.937c7.288,0,13.218-5.93,13.218-13.218v-6.819c0-7.288-5.93-13.218-13.218-13.218H251.028z"/></svg>