<?xml version="1.0" ?><svg id="Layer_1" style="enable-background:new 0 0 65 65;" version="1.1" viewBox="0 0 65 65" xml:space="preserve" xmlns="http://www.w3.org/2000/svg" xmlns:xlink="http://www.w3.org/1999/xlink"><style type="text/css">
	.st0{fill:#1C1F20;}
</style><g><path class="st0" d="M7.5,61.1h-6c-0.4,0-0.8,0.3-0.8,0.8s0.3,0.8,0.8,0.8h6c0.4,0,0.8-0.3,0.8-0.8S7.9,61.1,7.5,61.1z"/><path class="st0" d="M11.5,61.1h-1c-0.4,0-0.8,0.3-0.8,0.8s0.3,0.8,0.8,0.8h1c0.4,0,0.8-0.3,0.8-0.8S11.9,61.1,11.5,61.1z"/><path class="st0" d="M63.5,4.1h-1.3V2.9c0-0.4-0.3-0.8-0.8-0.8s-0.8,0.3-0.8,0.8v1.3h-1.3c-0.4,0-0.8,0.3-0.8,0.8s0.3,0.8,0.8,0.8   h1.3v1.3c0,0.4,0.3,0.8,0.8,0.8s0.8-0.3,0.8-0.8V5.6h1.3c0.4,0,0.8-0.3,0.8-0.8S63.9,4.1,63.5,4.1z"/><path class="st0" d="M5.5,52.6h44c2.6,0,4.8-2.1,4.8-4.8V4.7c0-0.2-0.1-0.4-0.2-0.5L50.8,1c-0.3-0.3-0.8-0.3-1.1,0L47,3.7L44.3,1   c-0.3-0.3-0.8-0.3-1.1,0l-2.7,2.7L37.8,1c-0.3-0.3-0.8-0.3-1.1,0L34,3.7L31.3,1c-0.3-0.3-0.8-0.3-1.1,0l-2.7,2.7L24.8,1   c-0.3-0.3-0.8-0.3-1.1,0L21,3.7L18.3,1c-0.3-0.3-0.8-0.3-1.1,0l-2.7,2.7L11.8,1c-0.3-0.3-0.8-0.3-1.1,0L8,3.7L5.3,1   C5,0.7,4.5,0.7,4.2,1L1,4.2C0.8,4.4,0.8,4.5,0.8,4.7v43.1C0.8,50.5,2.9,52.6,5.5,52.6z M2.3,5.1l2.5-2.5l2.7,2.7   c0.3,0.3,0.8,0.3,1.1,0l2.7-2.7L14,5.3c0.3,0.3,0.8,0.3,1.1,0l2.7-2.7l2.7,2.7c0.3,0.3,0.8,0.3,1.1,0l2.7-2.7L27,5.3   c0.3,0.3,0.8,0.3,1.1,0l2.7-2.7l2.7,2.7c0.3,0.3,0.8,0.3,1.1,0l2.7-2.7L40,5.3c0.3,0.3,0.8,0.3,1.1,0l2.7-2.7l2.7,2.7   c0.3,0.3,0.8,0.3,1.1,0l2.7-2.7l2.5,2.5v42.8c0,1.8-1.5,3.3-3.3,3.3h-44c-1.8,0-3.3-1.5-3.3-3.3V5.1z"/><path class="st0" d="M5.5,18.6h44c0.4,0,0.8-0.3,0.8-0.8v-10c0-0.4-0.3-0.8-0.8-0.8h-44c-0.4,0-0.8,0.3-0.8,0.8v10   C4.8,18.3,5.1,18.6,5.5,18.6z M6.3,8.6h42.5v8.5H6.3V8.6z"/><path class="st0" d="M37.5,30.1c-4.8,0-8.8,3.9-8.8,8.8s3.9,8.8,8.8,8.8s8.8-3.9,8.8-8.8S42.3,30.1,37.5,30.1z M44.7,38.1h-2.5   c-0.1-2.3-0.7-4.3-1.5-5.7C42.9,33.5,44.5,35.6,44.7,38.1z M36.8,31.9v6.3h-2.5C34.4,34.9,35.5,32.6,36.8,31.9z M36.8,39.6v6.3   c-1.2-0.7-2.3-3.1-2.5-6.3H36.8z M38.3,45.9v-6.3h2.5C40.6,42.8,39.5,45.2,38.3,45.9z M38.3,38.1v-6.3c1.2,0.7,2.3,3.1,2.5,6.3   H38.3z M34.3,32.4c-0.9,1.4-1.4,3.4-1.5,5.7h-2.5C30.5,35.6,32.1,33.5,34.3,32.4z M30.3,39.6h2.5c0.1,2.3,0.7,4.3,1.5,5.7   C32.1,44.3,30.5,42.1,30.3,39.6z M40.7,45.4c0.9-1.4,1.4-3.4,1.5-5.7h2.5C44.5,42.1,42.9,44.3,40.7,45.4z"/><path class="st0" d="M5.5,23.6h44c0.4,0,0.8-0.3,0.8-0.8s-0.3-0.8-0.8-0.8h-44c-0.4,0-0.8,0.3-0.8,0.8S5.1,23.6,5.5,23.6z"/><path class="st0" d="M5.5,27.6h44c0.4,0,0.8-0.3,0.8-0.8s-0.3-0.8-0.8-0.8h-44c-0.4,0-0.8,0.3-0.8,0.8S5.1,27.6,5.5,27.6z"/><path class="st0" d="M5.5,31.6h20c0.4,0,0.8-0.3,0.8-0.8s-0.3-0.8-0.8-0.8h-20c-0.4,0-0.8,0.3-0.8,0.8S5.1,31.6,5.5,31.6z"/><path class="st0" d="M5.5,35.6h20c0.4,0,0.8-0.3,0.8-0.8s-0.3-0.8-0.8-0.8h-20c-0.4,0-0.8,0.3-0.8,0.8S5.1,35.6,5.5,35.6z"/><path class="st0" d="M5.5,39.6h20c0.4,0,0.8-0.3,0.8-0.8s-0.3-0.8-0.8-0.8h-20c-0.4,0-0.8,0.3-0.8,0.8S5.1,39.6,5.5,39.6z"/><path class="st0" d="M5.5,43.6h20c0.4,0,0.8-0.3,0.8-0.8s-0.3-0.8-0.8-0.8h-20c-0.4,0-0.8,0.3-0.8,0.8S5.1,43.6,5.5,43.6z"/><path class="st0" d="M5.5,47.6h20c0.4,0,0.8-0.3,0.8-0.8s-0.3-0.8-0.8-0.8h-20c-0.4,0-0.8,0.3-0.8,0.8S5.1,47.6,5.5,47.6z"/><path class="st0" d="M58.2,25.5c-0.1-0.4-0.5-0.7-0.9-0.6c-0.4,0.1-0.7,0.5-0.6,0.9l5.6,26.3c0.1,0.3,0,0.7-0.2,0.9   c-0.2,0.3-0.5,0.5-0.8,0.5l-43,9.1c-0.7,0.1-1.3-0.3-1.5-1l-1.3-6c-0.1-0.4-0.5-0.7-0.9-0.6c-0.4,0.1-0.7,0.5-0.6,0.9l1.3,6   c0.3,1.3,1.4,2.2,2.7,2.2c0.2,0,0.4,0,0.6-0.1l43-9.1c0.7-0.2,1.3-0.6,1.7-1.2s0.5-1.4,0.4-2.1L58.2,25.5z"/></g></svg>