<?xml version="1.0" ?><svg viewBox="0 0 64 64" xmlns="http://www.w3.org/2000/svg"><g id="outline"><path d="M61.1,4.215l-12.5-1.21a1,1,0,0,0-.976,1.47L47.9,5H16a1,1,0,0,0-1,1V9H12a1,1,0,0,0-1,1V26H6a1,1,0,0,0-1,1V60a1,1,0,0,0,1,1H41a1,1,0,0,0,1-1V57h3a1,1,0,0,0,1-1V53h5a1,1,0,0,0,1-1V14.609l.839-.453L54.263,16.8a1,1,0,0,0,.88.525h.005a1,1,0,0,0,.88-.534L61.885,5.676A1,1,0,0,0,61.1,4.215ZM7,28h4v2H7ZM40,59H7V32h4V56a1,1,0,0,0,1,1H40Zm4-4H13V11h2V52a1,1,0,0,0,1,1H44Zm6-4H17V7H48.979l.062.115-30.1,16.237a1,1,0,0,0-.405,1.354l2.848,5.28a1,1,0,0,0,.881.526.99.99,0,0,0,.474-.12L50,15.687Zm5.133-36.8-1.008-1.87a1,1,0,0,0-1.355-.4l-30.1,16.235-1.9-3.52L50.871,8.4a1,1,0,0,0,.405-1.354l-1.008-1.87,9.152.886Z"/><path d="M19,34V49H47V27a1,1,0,0,0-1-1H40a1,1,0,0,0-1,1V47H37V31a1,1,0,0,0-1-1H30a1,1,0,0,0-1,1V47H27V34a1,1,0,0,0-1-1H20A1,1,0,0,0,19,34Zm22-6h4V47H41ZM31,32h4V47H31ZM21,35h4V47H21Z"/></g></svg>