<?xml version="1.0" ?><svg height="64" id="svg8" version="1.1" viewBox="0 0 16.933333 16.933334" width="64" xmlns="http://www.w3.org/2000/svg" xmlns:cc="http://creativecommons.org/ns#" xmlns:dc="http://purl.org/dc/elements/1.1/" xmlns:inkscape="http://www.inkscape.org/namespaces/inkscape" xmlns:rdf="http://www.w3.org/1999/02/22-rdf-syntax-ns#" xmlns:sodipodi="http://sodipodi.sourceforge.net/DTD/sodipodi-0.dtd" xmlns:svg="http://www.w3.org/2000/svg"><defs id="defs2"/><g id="layer1"><path d="M 0.79477317,0 C 0.35960283,0 0,0.35756925 0,0.7927165 0,1.1349416 0.22244042,1.4308714 0.52915978,1.541508 v 2.1636922 c 0,0.681839 0.2343804,1.3086078 0.62682692,1.8045412 0.2368504,0.4024654 0.4784672,0.8758439 0.6604163,1.3699422 -0.4189998,0.018857 -0.7575667,0.3709913 -0.7575667,0.7942667 0,0.1410314 0.037204,0.2738866 0.1028348,0.3891235 C 0.94171214,8.2046177 0.7947733,8.4509334 0.79477317,8.7297 c 0,0.2024404 0.0774725,0.3890286 0.20411926,0.5302002 -0.12649374,0.1406845 -0.20411913,0.3263336 -0.20411926,0.5286499 0,0.4351689 0.35803093,0.7947839 0.79322293,0.7947839 v 0.529683 c 0,0.435147 0.3575357,0.792717 0.7927062,0.792717 h 2.1171558 c 0.4351707,0 0.7937397,-0.35757 0.7937397,-0.792717 v -0.529683 c 0,-0.342254 -0.221883,-0.6376608 -0.5281263,-0.7482752 V 8.7297 h 0.1307397 c 0.5084665,0 0.9265464,-0.4165687 0.9265464,-0.9250082 0,-0.4523047 -0.3308106,-0.8326186 -0.7617007,-0.9110554 C 5.2412482,6.3946002 5.4841802,5.9157086 5.7230903,5.5097414 6.1155549,5.0138022 6.3499174,4.3870564 6.3499174,3.7052002 V 1.5420248 C 6.6569586,1.4318463 6.8790771,1.1355441 6.8790771,0.7927165 6.8790771,0.35756925 6.5215413,0 6.0863709,0 Z M 14.552927,0.7927165 c -0.147134,-5.6372e-4 -0.266461,0.11900911 -0.265613,0.2661336 h -0.263546 c -1.418635,2e-7 -2.632867,1.0269285 -2.869039,2.4256919 -0.01245,0.073718 -0.02171,0.1472295 -0.02842,0.2206582 H 8.3110123 L 8.6546564,3.361552 c 0.1026144,-0.1031992 0.1026144,-0.2699047 0,-0.3731038 C 8.6050868,2.9383221 8.5375708,2.9100469 8.4670732,2.9099 8.3965751,2.9100469 8.3290585,2.9383221 8.2794903,2.9884482 L 7.4867841,3.7811647 c -0.1039781,0.1034415 -0.1039781,0.271729 0,0.3751708 L 8.2794903,4.949052 c 0.1034409,0.1039871 0.2717235,0.1039871 0.3751661,0 0.1026144,-0.1031991 0.1026144,-0.2699046 0,-0.3731038 L 8.3110123,4.2323 h 2.8152957 c 0.101716,1.1149587 0.843872,2.1048369 1.942492,2.4866698 0.227244,0.078981 0.458458,0.1277321 0.689354,0.1488282 v 1.3332521 c 0,0.1511564 -0.112387,0.2651 -0.263546,0.2651 H 11.891109 C 11.87902,8.3855721 11.85798,8.3149942 11.82238,8.2470421 11.755511,8.119405 11.625582,8.0449533 11.5578,8.0165651 c -0.06778,-0.028389 -0.08882,-0.035511 -0.117304,-0.059428 -0.02847,-0.023918 -0.07313,-0.072673 -0.130222,-0.2072225 -0.05708,-0.1345506 -0.0615,-0.2016521 -0.05891,-0.2387451 0.0026,-0.037094 0.01156,-0.056591 0.03824,-0.1250569 0.02669,-0.068465 0.06392,-0.21462 0.0186,-0.3513998 C 11.262887,6.8979353 11.175385,6.7925653 11.036908,6.6564414 10.898433,6.5203177 10.788949,6.4337963 10.651407,6.3908246 c -0.137542,-0.042971 -0.282875,-0.00512 -0.350878,0.022738 -0.068,0.027854 -0.08439,0.037604 -0.121438,0.040824 -0.03704,0.00322 -0.104261,5.292e-4 -0.239776,-0.05426 C 9.8038057,6.3453509 9.7518451,6.300545 9.7274445,6.2724862 9.7030449,6.2444282 9.6970451,6.2245316 9.6675005,6.1572478 9.6379575,6.0899653 9.5611425,5.9619929 9.432376,5.8973153 9.3036087,5.8326397 9.1656046,5.8181429 8.9714281,5.8198008 8.7772521,5.8214677 8.639674,5.8366521 8.5120306,5.9035166 8.3843867,5.9703826 8.3094299,6.1029055 8.2810399,6.1706838 c -0.028389,0.067778 -0.03551,0.086251 -0.059427,0.1147215 -0.023918,0.028471 -0.072145,0.073658 -0.206703,0.1307415 C 7.880352,6.4732301 7.812746,6.477129 7.7756511,6.4745411 7.7385551,6.4719482 7.7190656,6.4635001 7.6505958,6.4368174 7.5821262,6.4101291 7.4365046,6.3728985 7.2997174,6.4182145 7.1629296,6.4635302 7.0570651,6.5531142 6.9209339,6.6915831 6.7848031,6.8300514 6.6988115,6.9374879 6.6558373,7.075022 c -0.042973,0.1375341 -0.00512,0.2828833 0.022738,0.350883 0.027855,0.068 0.037086,0.086465 0.040307,0.1235067 0.00322,0.037042 5.292e-4,0.1042734 -0.05426,0.2397787 -0.054779,0.1355058 -0.099061,0.1854086 -0.1271224,0.2098064 -0.028059,0.0244 -0.047949,0.030397 -0.1152367,0.059945 -0.067289,0.029539 -0.1957651,0.1079183 -0.2604461,0.2366783 -0.06468,0.12876 -0.078655,0.2647204 -0.076997,0.4588867 0.00167,0.1941658 0.02173,0.3303312 0.085782,0.4594035 0.072373,0.1458341 0.1967982,0.2041559 0.2645799,0.2325438 0.067782,0.02839 0.086765,0.033443 0.1152367,0.057361 0.028475,0.023921 0.075204,0.074744 0.1322899,0.2092897 0.057087,0.1345507 0.058915,0.2016522 0.056327,0.2387449 -0.00259,0.037099 -0.011033,0.054519 -0.037723,0.1229903 -0.02669,0.06847 -0.067715,0.207202 -0.018603,0.350883 0.046603,0.136347 0.1348892,0.245249 0.273365,0.381372 0.1384753,0.136124 0.245731,0.22265 0.383434,0.2651 0.1578065,0.04865 0.2828747,0.003 0.3508784,-0.0248 0.068004,-0.02785 0.086459,-0.03709 0.1235051,-0.04031 0.037046,-0.0032 0.1042627,-10e-4 0.2397755,0.05374 0.1355128,0.05478 0.1854028,0.09958 0.2098037,0.12764 0.024402,0.02806 0.030402,0.04795 0.059944,0.115239 0.029544,0.06729 0.091659,0.191657 0.2366752,0.262516 0.054154,0.02646 0.1098454,0.04481 0.1705299,0.05633 v 1.075904 c -1.8e-6,0.435143 0.3580523,0.795298 0.7932222,0.795298 h 1.7047834 c -0.07848,0.249936 -0.120921,0.515277 -0.120921,0.79065 0,0.09035 0.0051,0.179633 0.01395,0.267684 H 6.3044427 c -0.1096702,-0.307023 -0.404385,-0.529168 -0.7492985,-0.529167 -0.7706114,0.0094 -0.9985975,0.0021 -1.5864458,0 v -0.71107 C 3.9686997,13.12548 3.9316156,12.920274 3.8048861,12.741858 3.6781574,12.563441 3.445095,12.4349 3.1759921,12.4349 c -0.2367101,0 -0.4209365,0.138539 -0.5508635,0.287321 -0.2038642,0.227682 -0.3714291,0.608673 -0.5374279,0.935344 -0.031093,0.05644 -0.059884,0.101753 -0.075963,0.121439 L 1.5699096,13.926282 C 1.5303246,13.824155 1.4319169,13.756968 1.3223827,13.7573 H 0.26974745 c -0.14693687,-5.82e-4 -0.2661874,0.118688 -0.26561339,0.265617 V 16.6672 c -8.6301e-4,0.147131 0.11847353,0.266712 0.26561339,0.266134 H 1.3223827 c 0.097123,2.64e-4 0.1865777,-0.0527 0.2330577,-0.137976 0.168733,0.06713 0.3543978,0.137459 0.5617155,0.137459 h 1.587996 c 0.728186,0 1.322383,-0.593686 1.3223827,-1.321883 h 0.5296765 c 0.3421,0 0.6364803,-0.222662 0.7467149,-0.529167 h 4.926767 c 0.33939,1.071555 1.343469,1.851567 2.525394,1.851567 1.4596,-2e-6 2.6489,-1.189412 2.6489,-2.648934 0,-0.515433 -0.148514,-0.996574 -0.404622,-1.404049 l 0.295069,-0.22996 0.162262,0.208256 c 0.08965,0.116707 0.257291,0.13783 0.373099,0.04703 0.116049,-0.09028 0.136238,-0.257851 0.04496,-0.373104 -0.216958,-0.278249 -0.43313,-0.555877 -0.650081,-0.834058 -0.112373,-0.133349 -0.272509,-0.119816 -0.371549,-0.04651 -0.115218,0.08967 -0.136029,0.255713 -0.04651,0.371037 l 0.163295,0.209806 -0.294552,0.229444 C 15.37102,12.14087 14.985384,11.895842 14.552927,11.758975 V 11.11302 h 0.263547 c 0.147341,8.73e-4 0.266996,-0.118799 0.26613,-0.266134 -5.82e-4,-0.146325 -0.1198,-0.264407 -0.26613,-0.263549 h -2.115089 c -0.146128,-5.56e-4 -0.265044,0.117428 -0.265613,0.263549 -8.74e-4,0.147131 0.118473,0.266712 0.265613,0.266134 h 0.264063 v 0.643888 c -0.639114,0.200533 -1.174816,0.637486 -1.504281,1.207679 H 9.5238426 c -0.1511593,0 -0.2635464,-0.114985 -0.2635464,-0.266134 v -1.072286 c 0.081206,-0.01205 0.1527962,-0.03291 0.2211723,-0.06873 0.127644,-0.06687 0.1960072,-0.180765 0.229957,-0.264583 0.027588,-0.06811 0.03396,-0.08883 0.057877,-0.117306 0.023921,-0.02847 0.074212,-0.07314 0.2087702,-0.130224 0.1345563,-0.05708 0.2021623,-0.0615 0.2392583,-0.05891 0.0371,0.0026 0.05451,0.01104 0.122988,0.03772 0.06847,0.02669 0.214092,0.06392 0.350879,0.0186 0.136787,-0.04532 0.24472,-0.132316 0.38085,-0.270785 0.136132,-0.138468 0.222639,-0.247971 0.265614,-0.385506 0.04297,-0.137534 0.0025,-0.283401 -0.02532,-0.3514 -0.02785,-0.067998 -0.03709,-0.084399 -0.04031,-0.1214395 -0.0032,-0.037048 -5.29e-4,-0.10634 0.05426,-0.2418456 0.05478,-0.1355074 0.09905,-0.1854073 0.127122,-0.2098064 0.02806,-0.0244 0.04794,-0.030407 0.115237,-0.059945 0.06729,-0.029539 0.197833,-0.105851 0.262513,-0.2346108 0.02729,-0.054338 0.04534,-0.1102561 0.05684,-0.1715653 h 1.606599 c 0.43517,0 0.792706,-0.3596349 0.792706,-0.7947835 V 6.867798 C 15.226354,6.781326 16.097258,6.2399663 16.575,5.3691815 17.247619,4.1431873 16.950389,2.6095958 15.875827,1.7234091 V 1.0588501 C 15.876675,0.91172561 15.756832,0.79215419 15.609697,0.7927165 Z M 1.0588363,1.5880168 h 4.7619213 v 2.1171834 c 0,1.3237475 -1.0574023,2.3807334 -2.381219,2.3807334 -1.3238179,0 -2.3807023,-1.0569856 -2.3807023,-2.3807334 z m 12.9649317,0 h 0.263546 v 0.7927165 h -0.792706 c -0.146931,-5.609e-4 -0.266175,0.1186938 -0.265614,0.2656168 v 0.7932333 h -0.793222 c -0.146931,-5.556e-4 -0.266175,0.118694 -0.265614,0.2656168 v 0.7927166 h -0.468182 c -0.06744,-0.2964694 -0.07916,-0.6096895 -0.02584,-0.925525 0.193776,-1.1476736 1.183651,-1.9843749 2.34763,-1.984375 z M 3.4395386,2.1171835 C 3.3366056,2.116937 3.2428782,2.1764054 3.1992463,2.269629 L 2.8494013,3.0194539 2.0778823,3.1326255 C 1.8627017,3.1628385 1.7736451,3.4251771 1.9259556,3.5801433 L 2.4923219,4.164087 2.3533141,4.9826417 c -0.037305,0.2195015 0.1966393,0.384139 0.3906688,0.2749187 L 3.4395386,4.8710206 4.1211419,5.2518758 C 4.3144688,5.3603865 4.5475224,5.1973024 4.5118105,4.9785075 L 4.3728029,4.1485842 4.9489875,3.574459 C 5.103499,3.4214412 5.0177161,3.1577101 4.8027452,3.124874 L 4.0214077,3.0075686 3.6798308,2.269629 C 3.6361995,2.1764053 3.5424718,2.116937 3.4395386,2.1171835 Z M 15.875827,2.4711671 c 0.4614,0.5685486 0.632739,1.3177626 0.470249,2.0267497 h -0.470249 z m -3.985235,2.5564331 h 4.266351 C 15.530457,6.2564472 14.201328,6.5594766 13.24243,6.218742 12.633657,6.0071586 12.159777,5.5701376 11.890592,5.0276002 Z M 4.7143795,6.3215781 C 4.6370552,6.5022528 4.5657602,6.6888846 4.5019922,6.8786501 H 4.3650515 c -0.5084665,0 -0.9255129,0.4176019 -0.9255129,0.9260417 0,0.4640117 0.3475439,0.8514226 0.7947731,0.9157063 v 1.068152 H 2.9098621 c 0,-0.2024507 -0.076959,-0.3884491 -0.2036025,-0.5291667 C 2.8327227,9.1182528 2.9098621,8.9319758 2.9098621,8.7297 2.9098621,8.5274591 2.8326833,8.3427532 2.7062596,8.2020835 2.8326865,8.0614117 2.9098621,7.8761814 2.9098621,7.6739503 2.9098621,7.3365447 2.694698,7.0445068 2.3951715,6.9303264 2.3272362,6.7226121 2.2491764,6.5191869 2.1646976,6.3220948 2.5496482,6.509868 2.98223,6.6151002 3.4395386,6.6151002 c 0.4573909,0 0.8898385,-0.1056854 1.2748409,-0.2935221 z m 4.2606665,0.027389 c 0.115424,-9.79e-4 0.180717,0.011427 0.2072197,0.019637 0.01869,0.042868 0.055932,0.1495197 0.1452089,0.2521812 0.089277,0.1026605 0.2227747,0.1931107 0.4123726,0.269751 0.1895979,0.076641 0.3486588,0.1042834 0.4842018,0.092501 0.135543,-0.011785 0.236262,-0.063208 0.279566,-0.081132 0.02336,0.011856 0.07792,0.048333 0.161228,0.1302245 0.08369,0.082274 0.121465,0.1375757 0.13384,0.1612305 -0.01722,0.043584 -0.06546,0.1443691 -0.07493,0.2800863 -0.0095,0.135717 0.01883,0.2944067 0.0987,0.4826577 0.07987,0.1882521 0.173839,0.319704 0.278016,0.4072104 0.104175,0.087508 0.258896,0.1446941 0.258896,0.1446941 0,0 0.01659,0.0868 0.01757,0.2015381 9.79e-4,0.1147683 -0.0097,0.1800553 -0.01809,0.2072225 -0.04363,0.018971 -0.148997,0.056453 -0.251661,0.1457275 -0.102667,0.089268 -0.195171,0.2227897 -0.271815,0.412378 -0.07664,0.1895872 -0.102227,0.3486724 -0.09043,0.4842081 0.01178,0.135536 0.06166,0.23575 0.07855,0.276985 -0.0022,0.0039 -0.02562,0.05743 -0.129706,0.163298 -0.104072,0.105858 -0.15737,0.130995 -0.161229,0.133325 -0.04152,-0.01619 -0.142288,-0.06443 -0.278016,-0.0739 -0.135723,-0.0095 -0.2959399,0.0183 -0.4842014,0.09819 -0.188261,0.07987 -0.3176263,0.174366 -0.405138,0.278536 -0.087512,0.104169 -0.1233431,0.210565 -0.1415915,0.254248 -0.026608,0.0086 -0.091983,0.02073 -0.2077365,0.0217 -0.1141924,9.79e-4 -0.1778432,-0.0092 -0.2046361,-0.01757 -0.018949,-0.04364 -0.059031,-0.149003 -0.1483092,-0.251664 -0.089278,-0.102661 -0.2201908,-0.195179 -0.409789,-0.271819 -0.1895974,-0.07664 -0.3491756,-0.10222 -0.4847186,-0.09043 -0.1355429,0.01178 -0.2378113,0.06114 -0.2790489,0.07803 -0.00389,-0.0022 -0.057424,-0.02512 -0.1632956,-0.129191 C 7.2455293,10.34964 7.2079783,10.295722 7.1943,10.270173 7.2115189,10.226333 7.2597632,10.123221 7.2692298,9.9875033 7.2786991,9.8517816 7.2483359,9.693098 7.1684622,9.5048453 7.0885903,9.316594 6.9941056,9.1877255 6.8899299,9.1002188 6.7857545,9.0127116 6.6798887,8.9742907 6.6387857,8.9570753 6.6375686,8.9525747 6.615246,8.8991201 6.6139813,8.7508863 6.6129759,8.6335327 6.6253662,8.568596 6.6331025,8.5436638 6.6757152,8.5249736 6.7831312,8.487729 6.8857972,8.3984531 6.9884635,8.3091848 7.0789003,8.175662 7.1555446,7.9860751 7.2321884,7.7964879 7.2593107,7.6394696 7.2475274,7.5039338 7.2357456,7.3683978 7.186647,7.265858 7.1684635,7.2217806 c 0.012975,-0.026416 0.049916,-0.080605 0.1286726,-0.1607138 0.079706,-0.081075 0.1336142,-0.1188299 0.1596782,-0.1317749 0.04462,0.017735 0.1459082,0.063398 0.2816329,0.072864 0.1357244,0.00947 0.2938736,-0.018836 0.4821346,-0.098702 C 8.4088445,6.8235879 8.5402758,6.7296047 8.627787,6.6254348 8.715298,6.5212644 8.7516463,6.4153884 8.7698952,6.3717033 c 0.026725,-0.00881 0.091024,-0.022741 0.2051529,-0.022738 z M 1.83759,7.4083335 c 0.091889,-4.5e-5 0.1866532,0 0.2795659,0 0.1511375,0 0.2635464,0.1144876 0.2635464,0.2656168 0,0.15113 -0.1124082,0.2635499 -0.2635464,0.2635499 H 1.8515425 c -0.1511383,0 -0.2635464,-0.1124199 -0.2635464,-0.2635499 0,-0.1464064 0.1055868,-0.2587585 0.2495939,-0.2656168 z m 2.5274615,0 h 0.5291597 c 0.2244548,0 0.3973866,0.1719152 0.3973866,0.3963583 0,0.2244421 -0.1729318,0.3963583 -0.3973866,0.3963583 H 4.3650515 c -0.2244551,0 -0.3963531,-0.1719162 -0.3963531,-0.3963583 0,-0.2244431 0.171898,-0.3963583 0.3963531,-0.3963583 z m 4.6306648,0.2656168 c -0.5895004,0 -1.0598698,0.483479 -1.0598698,1.0557497 -5e-7,0.5813547 0.4774122,1.0588501 1.0588363,1.0588501 0.5814238,0 1.0583192,-0.4679249 1.0583192,-1.0588501 0,-0.5813544 -0.462167,-1.0557489 -1.0572857,-1.0557497 z M 1.5879961,8.4661501 h 0.5291598 c 0.1511586,0 0.2635464,0.1123982 0.2635464,0.2635499 0,0.1511501 -0.1123885,0.2661336 -0.2635464,0.2661336 H 1.5879961 c -0.1511581,0 -0.2656134,-0.1149835 -0.2656134,-0.2661336 0,-0.1511517 0.1144548,-0.2635499 0.2656134,-0.2635499 z m -0.00672,1.0588501 h 0.5358777 c 0.1511804,0 0.2635464,0.1123776 0.2635464,0.2635499 0,0.1511718 -0.112366,0.2656149 -0.2635464,0.2656169 H 1.5879961 c -0.1511804,0 -0.2656134,-0.121274 -0.2656134,-0.2656169 0,-0.1464479 0.1154666,-0.2571528 0.2588955,-0.2635499 z M 2.7062575,10.317717 H 4.497856 c 0.151159,0 0.2656134,0.114468 0.2656134,0.265617 v 0.529683 c 0,0.151152 -0.1144536,0.26355 -0.2656134,0.26355 H 2.3807023 c -0.1511598,0 -0.2635464,-0.112398 -0.2635464,-0.26355 v -0.529683 c 0.2328982,0 0.4435144,-0.103138 0.5891037,-0.265617 z m 11.0498275,1.847949 c 1.17361,0 2.11974,0.945187 2.11974,2.118734 0,1.173547 -0.94613,2.119249 -2.11974,2.11925 -1.173609,0 -2.119223,-0.945702 -2.119223,-2.11925 0,-1.173547 0.945614,-2.118734 2.119223,-2.118734 z m 0,0.529167 c -0.642477,-2e-6 -1.222759,0.386761 -1.468625,0.980302 -0.245866,0.593541 -0.110656,1.279986 0.343644,1.734261 0.454301,0.454278 1.140666,0.590018 1.734238,0.344165 0.593573,-0.245854 0.980806,-0.826716 0.980806,-1.469161 5.56e-4,-0.146115 -0.117422,-0.265033 -0.263546,-0.265617 H 14.021701 V 12.958382 C 14.021119,12.812268 13.90221,12.694276 13.756087,12.694833 Z M 3.1759921,12.964067 c 0.1272815,0 0.1583789,0.03002 0.1968848,0.08423 0.038505,0.05421 0.066662,0.156768 0.066662,0.26355 v 0.974618 c -5.556e-4,0.146923 0.1186828,0.266177 0.2656133,0.265617 0.8800816,0 0.956332,0.01086 1.8520592,0 0.151159,0 0.2635465,0.112399 0.2635465,0.26355 0,0.151153 -0.1123875,0.265616 -0.2635465,0.265616 H 4.7634715 c -0.1463244,-5.56e-4 -0.2653136,0.117749 -0.2656134,0.264067 v 0.265617 c 0,0.444388 -0.3486324,0.792716 -0.7927062,0.792716 H 2.1171559 C 1.9090512,16.375009 1.7596595,16.305218 1.5879961,16.235185 v -1.756999 l 0.5984053,-0.200504 c 0.1208048,-0.03412 0.1852155,-0.103121 0.2356415,-0.164848 0.050904,-0.06231 0.089612,-0.128576 0.1286726,-0.199471 0.1399609,-0.257195 0.3016007,-0.642069 0.4728331,-0.843359 0.077042,-0.08823 0.1240478,-0.105937 0.1524435,-0.105937 z" id="path866" style="opacity:1;fill:#000000;fill-opacity:1;stroke:none;stroke-width:0.5291667;stroke-linecap:round;stroke-linejoin:round;stroke-miterlimit:4;stroke-dasharray:none;stroke-dashoffset:0;stroke-opacity:1"/></g></svg>