<?xml version="1.0" ?><svg id="Layer_1" style="enable-background:new 0 0 65 65;" version="1.1" viewBox="0 0 65 65" xml:space="preserve" xmlns="http://www.w3.org/2000/svg" xmlns:xlink="http://www.w3.org/1999/xlink"><style type="text/css">
	.st0{fill:#1C1F20;}
</style><g><path class="st0" d="M63.5,5.8c-0.4,0-0.8,0.3-0.8,0.8v11c0,0.4,0.3,0.8,0.8,0.8s0.8-0.3,0.8-0.8v-11C64.3,6.1,63.9,5.8,63.5,5.8z"/><path class="st0" d="M63.5,0.8c-0.4,0-0.8,0.3-0.8,0.8v1c0,0.4,0.3,0.8,0.8,0.8s0.8-0.3,0.8-0.8v-1C64.3,1.1,63.9,0.8,63.5,0.8z"/><path class="st0" d="M62.5,56.8h-1.3v-1.3c0-0.4-0.3-0.8-0.8-0.8s-0.8,0.3-0.8,0.8v1.3h-1.3c-0.4,0-0.8,0.3-0.8,0.8   s0.3,0.8,0.8,0.8h1.3v1.3c0,0.4,0.3,0.8,0.8,0.8s0.8-0.3,0.8-0.8v-1.3h1.3c0.4,0,0.8-0.3,0.8-0.8S62.9,56.8,62.5,56.8z"/><path class="st0" d="M5.5,9.3c0.4,0,0.8-0.3,0.8-0.8S5.9,7.8,5.5,7.8H4.3V6.5c0-0.4-0.3-0.8-0.8-0.8S2.8,6.1,2.8,6.5v1.3H1.5   c-0.4,0-0.8,0.3-0.8,0.8s0.3,0.8,0.8,0.8h1.3v1.3c0,0.4,0.3,0.8,0.8,0.8s0.8-0.3,0.8-0.8V9.3H5.5z"/><path class="st0" d="M51.5,36.8H51c0.8-1.4,1.3-3.1,1.3-4.2c0-2.6-2.2-4.8-4.8-4.8s-4.8,2.2-4.8,4.8c0,1.1,0.5,2.8,1.3,4.2h-0.5   c-1,0-1.9,0.3-2.7,0.8c-0.7-1.7-2.4-2.8-4.3-2.8H36c0.8-1.4,1.3-3.1,1.3-4.2c0-2.6-2.2-4.8-4.8-4.8s-4.8,2.2-4.8,4.8   c0,1.1,0.5,2.8,1.3,4.2h-0.5c-1.9,0-3.6,1.2-4.3,2.8c-0.8-0.5-1.7-0.8-2.7-0.8H21c0.8-1.4,1.3-3.1,1.3-4.2c0-2.6-2.2-4.8-4.8-4.8   s-4.8,2.2-4.8,4.8c0,1.1,0.5,2.8,1.3,4.2h-0.5c-2.6,0-4.8,2.1-4.8,4.8v11c0,0.4,0.3,0.8,0.8,0.8h3.2v10.3c0,0.4,0.3,0.8,0.8,0.8   h8.1c0.4,0,0.8-0.3,0.8-0.8v-20c0-0.4-0.3-0.8-0.8-0.8s-0.8,0.3-0.8,0.8v19.3h-2.6V50.5c0-0.4-0.3-0.8-0.8-0.8s-0.8,0.3-0.8,0.8   v12.3h-2.6V43.5c0-0.4-0.3-0.8-0.8-0.8s-0.8,0.3-0.8,0.8v8.3h-2.4V41.5c0-1.8,1.5-3.3,3.3-3.3h1.6c0.7,0.7,1.5,1.1,2.4,1.1   s1.7-0.4,2.4-1.1h1.6c0.9,0,1.7,0.4,2.3,1c0,0.1,0,0.2,0,0.3v10c0,0.4,0.3,0.8,0.8,0.8h3.2v12.3c0,0.4,0.3,0.8,0.8,0.8h8.1   c0.4,0,0.8-0.3,0.8-0.8V50.3h3.2c0.4,0,0.8-0.3,0.8-0.8v-10c0-0.1,0-0.2,0-0.3c0.6-0.6,1.4-1,2.3-1h1.6c0.7,0.7,1.5,1.1,2.4,1.1   s1.7-0.4,2.4-1.1h1.6c1.8,0,3.3,1.5,3.3,3.3v10.3h-2.4v-8.3c0-0.4-0.3-0.8-0.8-0.8s-0.8,0.3-0.8,0.8v19.3h-2.6V50.5   c0-0.4-0.3-0.8-0.8-0.8s-0.8,0.3-0.8,0.8v12.3h-2.6V43.5c0-0.4-0.3-0.8-0.8-0.8s-0.8,0.3-0.8,0.8v20c0,0.4,0.3,0.8,0.8,0.8h8.1   c0.4,0,0.8-0.3,0.8-0.8V53.3h3.2c0.4,0,0.8-0.3,0.8-0.8v-11C56.3,38.9,54.1,36.8,51.5,36.8z M17.5,29.3c1.8,0,3.3,1.5,3.3,3.3   c0,1.3-0.8,3.3-1.8,4.4c0,0,0,0,0,0c-0.3,0.3-0.6,0.6-1,0.8c0,0,0,0-0.1,0c-0.1,0-0.3,0.1-0.4,0.1c-0.1,0-0.3,0-0.4-0.1   c0,0,0,0-0.1,0c-0.4-0.2-0.8-0.5-1-0.8c0,0,0,0,0,0c-1-1.1-1.8-3.1-1.8-4.4C14.2,30.7,15.7,29.3,17.5,29.3z M32.5,27.3   c1.8,0,3.3,1.5,3.3,3.3c0,1.3-0.8,3.3-1.8,4.4c0,0,0,0,0,0c-0.3,0.3-0.6,0.6-1,0.8c0,0,0,0-0.1,0c-0.1,0-0.3,0.1-0.4,0.1   c-0.1,0-0.3,0-0.4-0.1c0,0,0,0-0.1,0c-0.4-0.2-0.8-0.5-1-0.8c0,0,0,0,0,0c-1-1.1-1.8-3.1-1.8-4.4C29.2,28.7,30.7,27.3,32.5,27.3z    M39.8,48.8h-2.4v-5.3c0-0.4-0.3-0.8-0.8-0.8s-0.8,0.3-0.8,0.8v18.3h-2.6V48.5c0-0.4-0.3-0.8-0.8-0.8s-0.8,0.3-0.8,0.8v13.3h-2.6   V43.5c0-0.4-0.3-0.8-0.8-0.8s-0.8,0.3-0.8,0.8v5.3h-2.4v-9.3c0-1.8,1.5-3.3,3.3-3.3h1.6c0.7,0.7,1.5,1.1,2.4,1.1s1.7-0.4,2.4-1.1   h1.6c1.8,0,3.3,1.5,3.3,3.3V48.8z M47.5,29.3c1.8,0,3.3,1.5,3.3,3.3c0,1.3-0.8,3.3-1.8,4.4c0,0,0,0,0,0c-0.3,0.3-0.6,0.6-1,0.8   c0,0,0,0-0.1,0c-0.1,0-0.3,0.1-0.4,0.1c-0.1,0-0.3,0-0.4-0.1c0,0,0,0-0.1,0c-0.4-0.2-0.8-0.5-1-0.8c0,0,0,0,0,0   c-1-1.1-1.8-3.1-1.8-4.4C44.2,30.7,45.7,29.3,47.5,29.3z"/><path class="st0" d="M58.8,37.3c0.9-2.8,1.4-5.8,1.4-8.8c0-15.3-12.4-27.8-27.8-27.8S4.8,13.2,4.8,28.5c0,3,0.5,5.9,1.4,8.8   c0.1,0.3,0.4,0.5,0.7,0.5c0.1,0,0.2,0,0.2,0c0.4-0.1,0.6-0.6,0.5-0.9c-0.9-2.7-1.3-5.5-1.3-8.3c0-4.4,1.1-8.6,3-12.3h9.6   c-0.7,2.5-1.1,5.3-1.4,8.2c0,0.4,0.3,0.8,0.7,0.8c0.4,0,0.8-0.3,0.8-0.7c0.2-3,0.7-5.8,1.5-8.4h11.3v6.3c0,0.4,0.3,0.8,0.8,0.8   s0.8-0.3,0.8-0.8v-6.3h11.3c0.7,2.6,1.2,5.4,1.5,8.4c0,0.4,0.4,0.7,0.7,0.7c0,0,0,0,0.1,0c0.4,0,0.7-0.4,0.7-0.8   c-0.2-2.9-0.7-5.7-1.4-8.2h9.6c1.9,3.7,3,7.8,3,12.3c0,2.8-0.5,5.6-1.3,8.3c-0.1,0.4,0.1,0.8,0.5,0.9   C58.3,37.9,58.7,37.7,58.8,37.3z M10.2,14.8c3.6-5.9,9.5-10.2,16.4-11.8c-3.1,2.4-5.6,6.5-7.2,11.8H10.2z M20.9,14.8   c2.3-7.1,6.3-11.9,10.8-12.4v12.4H20.9z M33.3,14.8V2.3c4.5,0.5,8.5,5.3,10.8,12.4H33.3z M45.7,14.8c-1.6-5.3-4.2-9.4-7.2-11.8   c6.9,1.6,12.8,5.9,16.4,11.8H45.7z"/></g></svg>