<?xml version="1.0" ?><svg xmlns="http://www.w3.org/2000/svg" xmlns:xlink="http://www.w3.org/1999/xlink" version="1.1" id="Layer_1" viewBox="0 0 512 512" style="enable-background:new 0 0 512 512;" xml:space="preserve"><g><circle cx="147.2" cy="121.6" r="32"/><path d="M312.6,179.2h-8.2c-5.5,0-10,4.5-10,10v18.4c0,5.5,4.5,10,10,10h8.2c5.5,0,10-4.5,10-10v-18.4   C322.6,183.7,318.1,179.2,312.6,179.2z"/><path d="M368.9,128h-8.2c-5.5,0-10,4.5-10,10v69.6c0,5.5,4.5,10,10,10h8.2c5.5,0,10-4.5,10-10V138C378.9,132.5,374.4,128,368.9,128   z"/><path d="M425.2,89.6H417c-5.5,0-10,4.5-10,10v108c0,5.5,4.5,10,10,10h8.2c5.5,0,10-4.5,10-10v-108   C435.2,94.1,430.7,89.6,425.2,89.6z"/><path d="M218.2,43.7h-142c-17.9,0-32.5,14.6-32.5,32.5v142c0,17.9,14.6,32.5,32.5,32.5h142c17.9,0,32.5-14.6,32.5-32.5v-142   C250.7,58.3,236.1,43.7,218.2,43.7z M235.7,218.2c0,9.6-7.9,17.5-17.5,17.5h-13.4v-31.5c0-13.8-11.2-25-25-25h-65.2   c-13.8,0-25,11.2-25,25v31.5H76.2c-9.6,0-17.5-7.9-17.5-17.5v-142c0-9.6,7.9-17.5,17.5-17.5h142c9.6,0,17.5,7.9,17.5,17.5V218.2z"/><path d="M435.8,43.7h-142c-17.9,0-32.5,14.6-32.5,32.5v142c0,17.9,14.6,32.5,32.5,32.5h142c17.9,0,32.5-14.6,32.5-32.5v-142   C468.3,58.3,453.7,43.7,435.8,43.7z M453.3,218.2c0,9.6-7.9,17.5-17.5,17.5h-142c-9.6,0-17.5-7.9-17.5-17.5v-142   c0-9.6,7.9-17.5,17.5-17.5h142c9.6,0,17.5,7.9,17.5,17.5V218.2z"/><path d="M218.2,261.3h-142c-17.9,0-32.5,14.6-32.5,32.5v142c0,17.9,14.6,32.5,32.5,32.5h142c17.9,0,32.5-14.6,32.5-32.5v-142   C250.7,275.9,236.1,261.3,218.2,261.3z M235.7,435.8c0,9.6-7.9,17.5-17.5,17.5h-142c-9.6,0-17.5-7.9-17.5-17.5v-142   c0-9.6,7.9-17.5,17.5-17.5h142c9.6,0,17.5,7.9,17.5,17.5V435.8z"/><path d="M435.8,261.3h-142c-17.9,0-32.5,14.6-32.5,32.5v142c0,17.9,14.6,32.5,32.5,32.5h142c17.9,0,32.5-14.6,32.5-32.5v-142   C468.3,275.9,453.7,261.3,435.8,261.3z M453.3,435.8c0,9.6-7.9,17.5-17.5,17.5h-142c-9.6,0-17.5-7.9-17.5-17.5v-142   c0-9.6,7.9-17.5,17.5-17.5h142c9.6,0,17.5,7.9,17.5,17.5V435.8z"/><path d="M364.8,299.7c-35.9,0-65.1,29.2-65.1,65.1s29.2,65.1,65.1,65.1s65.1-29.2,65.1-65.1S400.7,299.7,364.8,299.7z M364.8,414.9   c-27.6,0-50.1-22.5-50.1-50.1s22.5-50.1,50.1-50.1c27.6,0,50.1,22.5,50.1,50.1S392.4,414.9,364.8,414.9z"/><path d="M384,357.3h-11.7v-24.5c0-4.1-3.4-7.5-7.5-7.5s-7.5,3.4-7.5,7.5v32c0,4.1,3.4,7.5,7.5,7.5H384c4.1,0,7.5-3.4,7.5-7.5   S388.1,357.3,384,357.3z"/><path d="M147.2,357.3c-7.4,0-13.3-6-13.3-13.3s6-13.3,13.3-13.3c5.1,0,9.7,2.8,11.9,7.4c1.9,3.7,6.4,5.2,10.1,3.3   c3.7-1.9,5.2-6.4,3.3-10.1c-3.7-7.4-10.2-12.6-17.9-14.7v-9.4c0-4.1-3.4-7.5-7.5-7.5s-7.5,3.4-7.5,7.5v9.4   c-12,3.3-20.8,14.3-20.8,27.3c0,15.6,12.7,28.3,28.3,28.3c7.4,0,13.3,6,13.3,13.3s-6,13.3-13.3,13.3c-5.1,0-9.7-2.8-11.9-7.4   c-1.9-3.7-6.4-5.2-10.1-3.3c-3.7,1.9-5.2,6.4-3.3,10.1c3.7,7.4,10.2,12.6,17.9,14.7v9.4c0,4.1,3.4,7.5,7.5,7.5s7.5-3.4,7.5-7.5V413   c12-3.3,20.8-14.3,20.8-27.3C175.5,370,162.8,357.3,147.2,357.3z"/></g></svg>